<svg width="18" height="17" viewBox="0 0 18 17" fill="none" xmlns="http://www.w3.org/2000/svg">
<path d="M16.6321 13.4265L14.0047 10.7987C13.4813 10.2775 12.6147 10.2933 12.0731 10.8351L10.7493 12.1585C10.6657 12.1124 10.5791 12.0643 10.4881 12.0132C9.65221 11.55 8.5081 10.9152 7.30417 9.71038C6.09667 8.50302 5.46124 7.35716 4.99665 6.52069C4.94763 6.43208 4.90065 6.34664 4.85427 6.2655L5.74269 5.3784L6.17947 4.94108C6.72188 4.39852 6.73683 3.5321 6.21471 3.00934L3.58723 0.381275C3.06511 -0.140751 2.19805 -0.124914 1.65564 0.41764L0.915126 1.16241L0.935361 1.1825C0.687057 1.49933 0.479567 1.86475 0.325159 2.25881C0.182824 2.6339 0.0942064 2.99184 0.0536859 3.35051C-0.293256 6.22674 1.02109 8.85539 4.58807 12.4224C9.51872 17.3527 13.4922 16.9803 13.6636 16.9621C14.0369 16.9175 14.3947 16.8283 14.7583 16.687C15.149 16.5344 15.5141 16.3272 15.8308 16.0795L15.847 16.0938L16.5972 15.3593C17.1384 14.8168 17.154 13.9501 16.6321 13.4265Z" fill="#F73030"/>
</svg>
