<svg width="30" height="30" viewBox="0 0 30 30" fill="none" xmlns="http://www.w3.org/2000/svg">
<rect width="30" height="30" rx="15" fill="url(#paint0_radial)"/>
<rect width="30" height="30" rx="15" fill="url(#paint1_radial)"/>
<path d="M14.9987 5.14325C12.3216 5.14325 11.9857 5.15496 10.9342 5.2028C9.88484 5.25086 9.16854 5.41699 8.54179 5.66075C7.89347 5.91252 7.34351 6.2493 6.79562 6.7974C6.24731 7.34529 5.91052 7.89524 5.65792 8.54335C5.41355 9.1703 5.24721 9.88679 5.19997 10.9358C5.15295 11.9872 5.14062 12.3234 5.14062 15.0004C5.14062 17.6774 5.15254 18.0124 5.20018 19.0638C5.24844 20.1132 5.41457 20.8295 5.65813 21.4562C5.91011 22.1045 6.2469 22.6545 6.795 23.2024C7.34269 23.7507 7.89264 24.0883 8.54055 24.34C9.16772 24.5838 9.88422 24.7499 10.9334 24.798C11.9848 24.8458 12.3206 24.8575 14.9975 24.8575C17.6747 24.8575 18.0097 24.8458 19.0611 24.798C20.1105 24.7499 20.8276 24.5838 21.4548 24.34C22.1029 24.0883 22.652 23.7507 23.1997 23.2024C23.748 22.6545 24.0848 22.1045 24.3374 21.4564C24.5797 20.8295 24.7461 20.113 24.7954 19.064C24.8426 18.0126 24.8549 17.6774 24.8549 15.0004C24.8549 12.3234 24.8426 11.9874 24.7954 10.936C24.7461 9.88659 24.5797 9.1703 24.3374 8.54355C24.0848 7.89524 23.748 7.34529 23.1997 6.7974C22.6514 6.2491 22.1031 5.91231 21.4542 5.66075C20.8258 5.41699 20.1091 5.25086 19.0597 5.2028C18.0082 5.15496 17.6735 5.14325 14.9956 5.14325H14.9987ZM14.1144 6.91959C14.3769 6.91918 14.6697 6.91959 14.9987 6.91959C17.6306 6.91959 17.9425 6.92904 18.9818 6.97627C19.9429 7.02021 20.4645 7.1808 20.812 7.31572C21.272 7.49438 21.6 7.70795 21.9448 8.05295C22.2898 8.39795 22.5033 8.72653 22.6824 9.18653C22.8173 9.53358 22.9781 10.0552 23.0219 11.0163C23.0691 12.0554 23.0794 12.3675 23.0794 14.9981C23.0794 17.6288 23.0691 17.9409 23.0219 18.98C22.9779 19.9411 22.8173 20.4627 22.6824 20.8097C22.5037 21.2697 22.2898 21.5973 21.9448 21.9421C21.5998 22.2871 21.2722 22.5007 20.812 22.6793C20.4649 22.8148 19.9429 22.975 18.9818 23.019C17.9427 23.0662 17.6306 23.0765 14.9987 23.0765C12.3666 23.0765 12.0547 23.0662 11.0155 23.019C10.0545 22.9746 9.53285 22.814 9.18518 22.6791C8.72517 22.5004 8.3966 22.2869 8.05159 21.9419C7.70659 21.5969 7.49302 21.2691 7.31394 20.8089C7.17902 20.4619 7.01822 19.9403 6.97448 18.9792C6.92725 17.9401 6.9178 17.6279 6.9178 14.9957C6.9178 12.3634 6.92725 12.0529 6.97448 11.0138C7.01843 10.0527 7.17902 9.53112 7.31394 9.18365C7.4926 8.72365 7.70659 8.39508 8.05159 8.05008C8.3966 7.70508 8.72517 7.49151 9.18518 7.31244C9.53264 7.1769 10.0545 7.01672 11.0155 6.97257C11.9249 6.9315 12.2773 6.91918 14.1144 6.91712V6.91959ZM20.2604 8.55628C19.6074 8.55628 19.0775 9.08549 19.0775 9.73873C19.0775 10.3918 19.6074 10.9216 20.2604 10.9216C20.9134 10.9216 21.4433 10.3918 21.4433 9.73873C21.4433 9.0857 20.9134 8.55587 20.2604 8.55587V8.55628ZM14.9987 9.93834C12.2031 9.93834 9.93659 12.2049 9.93659 15.0004C9.93659 17.7959 12.2031 20.0614 14.9987 20.0614C17.7942 20.0614 20.06 17.7959 20.06 15.0004C20.06 12.2049 17.794 9.93834 14.9985 9.93834H14.9987ZM14.9987 11.7147C16.8132 11.7147 18.2844 13.1857 18.2844 15.0004C18.2844 16.8149 16.8132 18.2861 14.9987 18.2861C13.1839 18.2861 11.7129 16.8149 11.7129 15.0004C11.7129 13.1857 13.1839 11.7147 14.9987 11.7147Z" fill="white"/>
<defs>
<radialGradient id="paint0_radial" cx="0" cy="0" r="1" gradientUnits="userSpaceOnUse" gradientTransform="translate(7.96879 32.3106) rotate(-90) scale(29.7322 27.6533)">
<stop stop-color="#FFDD55"/>
<stop offset="0.1" stop-color="#FFDD55"/>
<stop offset="0.5" stop-color="#FF543E"/>
<stop offset="1" stop-color="#C837AB"/>
</radialGradient>
<radialGradient id="paint1_radial" cx="0" cy="0" r="1" gradientUnits="userSpaceOnUse" gradientTransform="translate(7.96879 32.3106) rotate(-90) scale(29.7322 27.6533)">
<stop stop-color="#FFDD55"/>
<stop offset="0.1" stop-color="#FFDD55"/>
<stop offset="0.5" stop-color="#FF543E"/>
<stop offset="1" stop-color="#C837AB"/>
</radialGradient>
</defs>
</svg>
