<svg width="19" height="23" viewBox="0 0 19 23" fill="none" xmlns="http://www.w3.org/2000/svg">
<rect x="1" y="1" width="17" height="17" rx="6" stroke="#8F62B2" stroke-width="2"/>
<path d="M2.59082 22.0227L4.74991 17.2727L11.2272 17.7045L2.59082 22.0227Z" fill="#8F62B2"/>
<path d="M12.6267 8.51828C12.6385 7.10715 11.4541 5.81351 9.98639 5.63463C9.9572 5.63111 9.9254 5.62577 9.89173 5.62011C9.81907 5.60789 9.74393 5.59534 9.66812 5.59534C9.3673 5.59534 9.28689 5.80975 9.26573 5.93763C9.24514 6.06196 9.26478 6.16637 9.32399 6.24809C9.42361 6.38554 9.59889 6.40994 9.73967 6.4295C9.78094 6.43528 9.81987 6.44066 9.85246 6.44808C11.1711 6.74708 11.6152 7.21715 11.8322 8.54387C11.8375 8.57629 11.8399 8.61623 11.8424 8.65859C11.8519 8.81718 11.8716 9.14714 12.2212 9.14714H12.2212C12.2503 9.14714 12.2816 9.14459 12.3141 9.13955C12.6397 9.08935 12.6295 8.78775 12.6246 8.64284C12.6232 8.60202 12.6219 8.56342 12.6253 8.53774C12.6262 8.53128 12.6267 8.52478 12.6267 8.51828Z" fill="#8F62B2"/>
<path d="M9.58254 5.11659C9.6216 5.11945 9.65857 5.12219 9.68935 5.12697C11.8547 5.46488 12.8506 6.50593 13.1266 8.72039C13.1312 8.75803 13.132 8.80395 13.1327 8.85256C13.1355 9.02557 13.1412 9.38549 13.5221 9.39295L13.5339 9.39307C13.6534 9.39307 13.7484 9.35652 13.8164 9.28434C13.935 9.15848 13.9267 8.97152 13.92 8.82126C13.9184 8.78439 13.9168 8.74967 13.9172 8.71927C13.9448 6.45446 12.0128 4.40074 9.78278 4.32436C9.77353 4.32405 9.76471 4.32455 9.7558 4.32582C9.75142 4.32648 9.7433 4.32728 9.72939 4.32728C9.70715 4.32728 9.6798 4.32533 9.65079 4.32334C9.61571 4.32091 9.57595 4.31812 9.53564 4.31812C9.18052 4.31812 9.113 4.57424 9.10436 4.72693C9.08445 5.07979 9.42086 5.10462 9.58254 5.11659Z" fill="#8F62B2"/>
<path d="M13.0219 11.5826C12.9758 11.5469 12.9282 11.51 12.8837 11.4736C12.6472 11.2805 12.3957 11.1026 12.1525 10.9304C12.102 10.8948 12.0515 10.859 12.0012 10.8232C11.6896 10.6011 11.4095 10.4932 11.1448 10.4932C10.7883 10.4932 10.4775 10.6931 10.221 11.0872C10.1074 11.2619 9.96949 11.3469 9.79957 11.3469C9.69909 11.3469 9.58492 11.3178 9.46028 11.2604C8.45451 10.7976 7.73633 10.088 7.32564 9.15134C7.12711 8.69864 7.19147 8.40273 7.54086 8.16189C7.73927 8.02525 8.10858 7.77086 8.08242 7.28372C8.0528 6.73052 6.84991 5.06603 6.34309 4.87698C6.12851 4.79691 5.90306 4.79616 5.67178 4.87511C5.08915 5.07386 4.67104 5.4229 4.46255 5.88443C4.26108 6.33038 4.27018 6.85402 4.48887 7.39873C5.12106 8.97361 6.0099 10.3467 7.13078 11.4798C8.22792 12.589 9.57641 13.4975 11.1387 14.1802C11.2796 14.2417 11.4273 14.2752 11.5351 14.2997C11.5719 14.3081 11.6036 14.3152 11.6267 14.3216C11.6395 14.3251 11.6526 14.327 11.6657 14.3272L11.6781 14.3272C11.6781 14.3272 11.6781 14.3272 11.6781 14.3272C12.4129 14.3272 13.2952 13.6459 13.5662 12.8691C13.8036 12.1889 13.3702 11.8527 13.0219 11.5826Z" fill="#8F62B2"/>
<path d="M9.9077 6.91568C9.7819 6.91891 9.52008 6.9255 9.42821 7.19608C9.38523 7.32253 9.39038 7.43232 9.44353 7.5224C9.52152 7.65457 9.67094 7.69507 9.80686 7.71729C10.2998 7.79755 10.5529 8.07413 10.6036 8.58763C10.6271 8.82707 10.786 8.99427 10.99 8.99427H10.99C11.0051 8.99427 11.0205 8.99337 11.0358 8.99147C11.2812 8.96185 11.4002 8.77892 11.3894 8.44782C11.3933 8.10226 11.2151 7.70996 10.912 7.39747C10.6078 7.08403 10.2412 6.9075 9.9077 6.91568Z" fill="#8F62B2"/>
</svg>
