<svg width="20" height="20" viewBox="0 0 20 20" fill="none" xmlns="http://www.w3.org/2000/svg">
<path d="M9.5111 0.0115662C4.18608 0.263064 -0.0161077 4.66193 4.64182e-05 9.94989C0.00496498 11.5605 0.396955 13.0806 1.08845 14.4238L0.026761 19.5357C-0.0306705 19.8122 0.220755 20.0544 0.497689 19.9893L5.54756 18.8026C6.84495 19.4436 8.30219 19.8139 9.84445 19.8372C15.2871 19.9197 19.8254 15.633 19.995 10.2363C20.1769 4.45142 15.3635 -0.264899 9.5111 0.0115662ZM15.5367 15.4111C14.0578 16.8781 12.0915 17.686 10 17.686C8.77539 17.686 7.60294 17.4134 6.51511 16.8759L5.81186 16.5284L2.71577 17.256L3.36748 14.118L3.02101 13.445C2.45629 12.348 2.16995 11.1617 2.16995 9.91918C2.16995 7.84459 2.98441 5.89421 4.4633 4.42722C5.92899 2.97338 7.92737 2.15236 10.0002 2.15236C12.0916 2.15241 14.0578 2.96028 15.5367 4.42717C17.0156 5.89411 17.8301 7.84449 17.8301 9.91903C17.8301 11.9751 17.0024 13.9573 15.5367 15.4111Z" fill="#6DC171"/>
<path d="M14.8536 12.0702L12.9166 11.5185C12.662 11.446 12.3877 11.5177 12.2022 11.7052L11.7285 12.1839C11.5288 12.3858 11.2257 12.4506 10.9613 12.3445C10.045 11.9767 8.11754 10.2768 7.6253 9.42647C7.48328 9.18119 7.50677 8.87455 7.68114 8.65074L8.09468 8.12005C8.2567 7.91213 8.29089 7.63289 8.18375 7.39254L7.36881 5.56428C7.17361 5.12638 6.60947 4.99891 6.24091 5.30809C5.70031 5.76163 5.05887 6.45083 4.98089 7.21437C4.84342 8.56053 5.42544 10.2575 7.6264 12.2951C10.1691 14.6491 12.2053 14.9601 13.531 14.6416C14.283 14.4609 14.8839 13.7367 15.2632 13.1436C15.5218 12.7393 15.3176 12.2024 14.8536 12.0702Z" fill="#6DC171"/>
</svg>
